<?xml version="1.0" encoding="utf-8"?>
<!-- Generator: Adobe Illustrator 19.2.1, SVG Export Plug-In . SVG Version: 6.00 Build 0)  -->
<svg version="1.1" id="Réteg_1" xmlns="http://www.w3.org/2000/svg" xmlns:xlink="http://www.w3.org/1999/xlink" x="0px" y="0px"
	 viewBox="0 0 335 50" style="enable-background:new 0 0 335 50;" xml:space="preserve">
<style type="text/css">
	.st0{ fill:white;}
</style>
<g>
	<g>
		<path class="st0" d="M78.3,25.1c4.1-0.9,7.9-4.6,7.9-10.3c0-6.7-4.8-11.4-12.6-11.4H53.8v0H40.2v5h13.4V42h5.6V27.8H73
			c5.5,0,8.3,3.6,8.3,7.7c0,4.8-3.1,7.7-8.3,7.7h-6.9v5h8c8.2,0,13-4.9,13-12.1C87.1,30.8,83.1,25.8,78.3,25.1z M72.7,22.8H59.2V8.3
			h13.5c5.1,0,7.7,3.2,7.7,7.3C80.4,19.7,77.7,22.8,72.7,22.8z M119.1,30.7c0,7.9-4.3,12.8-12.2,12.8c-7.9,0-12.1-5-12.1-12.8V4.5
			h-5.4v26.3c0,10.6,5.9,17.5,17.5,17.5c11.7,0,17.6-6.8,17.6-17.5V4.5h-5.4V30.7z M51.4,9.7l-5.6,0v13.2H32.4
			c-5.1,0-7.7-3.1-7.7-7.2c0-4,2.7-7.3,7.7-7.3h6.5v-5h-7.5c-7.8,0-12.6,4.7-12.6,11.4c0,5.7,3.8,9.4,7.9,10.3
			c-4.8,0.7-8.8,5.7-8.8,11c0,7.2,4.8,12.1,13,12.1h20.3v0h13.6v-5H51.4V9.7z M45.9,43.3H32c-5.2,0-8.3-3-8.3-7.7
			c0-4.1,2.8-7.7,8.3-7.7h13.8V43.3z M278.3,4.5h-6.7l-19,22.2V4.5h-5.4v43h5.4V33.1l4.3-4.9l16.3,19.3h6.7l-19.5-22.6L278.3,4.5z
			 M228.9,43.5c-9.4,0-16.6-7.3-16.6-17.5c0-10.3,7.2-17.5,16.6-17.5c4.9,0,9.4,2.6,11.9,6.2l4.4-2.5c-3.4-4.9-8.7-8.5-16.3-8.5
			c-12.4,0-22.1,9-22.1,22.2s9.7,22.2,22.1,22.2c7.6,0,12.8-3.6,16.4-8.6l-4.5-2.4C238.3,40.9,233.8,43.5,228.9,43.5z M167,25.4
			h-20.1v4.8h14.8v8.7c-2.2,2.2-6.4,4.6-11.6,4.6c-9.4,0-16.6-7.3-16.6-17.5c0-10.3,7.2-17.5,16.6-17.5c5.2,0,9.7,2.4,12.4,5.9
			l4.3-2.7c-3.7-4.6-9-8-16.7-8C137.9,3.8,128,12.6,128,26c0,13.3,9.9,22.3,22.1,22.3c7,0,12.9-3,16.9-7.5V25.4z M310.9,4.5v26.2
			c0,7.9-4.3,12.8-12.2,12.8c-7.9,0-12.1-5-12.1-12.8V4.5h-5.4v26.3c0,10.6,5.9,17.5,17.5,17.5c11.7,0,17.6-6.8,17.6-17.5V4.5H310.9
			z M183.8,4.5l-17.3,43h6.1l3.8-9.6h21.4l3.8,9.6h6.1l-17.3-43H183.8z M178,33.2l9.1-23.2l9.2,23.2H178z"/>
	</g>
</g>
</svg>
